<?xml version="1.0" encoding="UTF-8"?>
<svg width="79px" height="80px" viewBox="0 0 79 80" version="1.1" xmlns="http://www.w3.org/2000/svg" xmlns:xlink="http://www.w3.org/1999/xlink">
    <!-- Generator: Sketch 48.2 (47327) - http://www.bohemiancoding.com/sketch -->
    <title>Facebook</title>
    <desc>Created with Sketch.</desc>
    <defs></defs>
    <g id="SOCIAL-ICONS-SKETCH" stroke="none" stroke-width="1" fill="none" fill-rule="evenodd" transform="translate(-270.000000, -827.000000)">
        <g id="CIRCLE-KO" transform="translate(140.000000, 827.000000)" fill="#FFFFFF">
            <g id="Facebook" transform="translate(130.000000, 0.000000)">
                <path d="M39.527,79.56 C17.765,79.56 0.061,61.856 0.061,40.095 C0.061,18.333 17.765,0.629 39.527,0.629 C61.289,0.629 78.993,18.333 78.993,40.095 C78.993,61.856 61.289,79.56 39.527,79.56 L39.527,79.56 Z M39.527,3.629 C19.419,3.629 3.061,19.987 3.061,40.095 C3.061,60.202 19.419,76.56 39.527,76.56 C59.634,76.56 75.993,60.202 75.993,40.095 C75.993,19.987 59.634,3.629 39.527,3.629 L39.527,3.629 Z" id="Facebook-Circle"></path>
                <path d="M57.59,55.72 C57.59,56.839 56.683,57.746 55.564,57.746 L46.209,57.746 L46.209,43.53 L50.981,43.53 L51.696,37.989 L46.209,37.989 L46.209,34.452 C46.209,32.848 46.655,31.755 48.955,31.755 L51.889,31.753 L51.889,26.798 C51.382,26.73 49.64,26.58 47.614,26.58 C43.384,26.58 40.488,29.162 40.488,33.903 L40.488,37.989 L35.704,37.989 L35.704,43.53 L40.488,43.53 L40.488,57.746 L22.905,57.746 C21.786,57.746 20.879,56.839 20.879,55.72 L20.879,23.061 C20.879,21.942 21.786,21.035 22.905,21.035 L55.564,21.035 C56.683,21.035 57.59,21.942 57.59,23.061 L57.59,55.72"></path>
            </g>
        </g>
    </g>
</svg>