<?xml version="1.0" encoding="UTF-8"?>
<svg width="79px" height="80px" viewBox="0 0 79 80" version="1.1" xmlns="http://www.w3.org/2000/svg" xmlns:xlink="http://www.w3.org/1999/xlink">
    <!-- Generator: Sketch 48.2 (47327) - http://www.bohemiancoding.com/sketch -->
    <title>Instagram</title>
    <desc>Created with Sketch.</desc>
    <defs></defs>
    <g id="SOCIAL-ICONS-SKETCH" stroke="none" stroke-width="1" fill="none" fill-rule="evenodd" transform="translate(-911.000000, -828.000000)">
        <g id="CIRCLE-KO" transform="translate(140.000000, 827.000000)" fill="#FFFFFF">
            <g id="Instagram" transform="translate(771.000000, 1.000000)">
                <path d="M39.526,79.56 C17.765,79.56 0.06,61.856 0.06,40.095 C0.06,18.333 17.765,0.629 39.526,0.629 C61.288,0.629 78.992,18.333 78.992,40.095 C78.992,61.856 61.288,79.56 39.526,79.56 L39.526,79.56 Z M39.526,3.629 C19.419,3.629 3.06,19.987 3.06,40.095 C3.06,60.202 19.419,76.56 39.526,76.56 C59.634,76.56 75.992,60.202 75.992,40.095 C75.992,19.987 59.634,3.629 39.526,3.629 L39.526,3.629 Z" id="Instagram-Circle"></path>
                <path d="M54.456,21.665 L26.509,21.665 C24.102,21.665 22.151,23.611 22.151,26.013 L22.151,53.98 C22.151,56.381 24.102,58.328 26.509,58.328 L54.456,58.328 C56.863,58.328 58.814,56.381 58.814,53.98 L58.814,26.013 C58.814,23.611 56.863,21.665 54.456,21.665 L54.456,21.665 Z M48.503,27.393 C48.503,26.761 49.016,26.247 49.648,26.247 L53.085,26.247 C53.718,26.247 54.231,26.761 54.231,27.393 L54.231,30.83 C54.231,31.463 53.718,31.976 53.085,31.976 L49.648,31.976 C49.016,31.976 48.503,31.463 48.503,30.83 L48.503,27.393 L48.503,27.393 Z M40.525,33.005 C44.419,33.005 47.576,36.155 47.576,40.038 C47.576,43.924 44.419,47.073 40.525,47.073 C36.632,47.073 33.475,43.924 33.475,40.038 C33.475,36.155 36.632,33.005 40.525,33.005 L40.525,33.005 Z M55.377,53.745 C55.377,54.377 54.864,54.891 54.231,54.891 L26.734,54.891 C26.101,54.891 25.588,54.377 25.588,53.745 L25.588,36.559 L30.171,36.559 C29.574,37.418 29.372,39.021 29.372,40.038 C29.372,46.174 34.376,51.166 40.525,51.166 C46.675,51.166 51.679,46.174 51.679,40.038 C51.679,39.021 51.534,37.442 50.794,36.559 L55.377,36.559 L55.377,53.745 L55.377,53.745 Z"></path>
            </g>
        </g>
    </g>
</svg>