<?xml version="1.0" encoding="UTF-8"?>
<svg width="79px" height="80px" viewBox="0 0 79 80" version="1.1" xmlns="http://www.w3.org/2000/svg" xmlns:xlink="http://www.w3.org/1999/xlink">
    <!-- Generator: Sketch 48.2 (47327) - http://www.bohemiancoding.com/sketch -->
    <title>LinkedIn</title>
    <desc>Created with Sketch.</desc>
    <defs></defs>
    <g id="SOCIAL-ICONS-SKETCH" stroke="none" stroke-width="1" fill="none" fill-rule="evenodd" transform="translate(-655.000000, -828.000000)">
        <g id="CIRCLE-KO" transform="translate(140.000000, 827.000000)" fill="#FFFFFF">
            <g id="LinkedIn" transform="translate(515.000000, 1.000000)">
                <path d="M39.526,79.56 C17.765,79.56 0.061,61.856 0.061,40.095 C0.061,18.333 17.765,0.629 39.526,0.629 C61.288,0.629 78.992,18.333 78.992,40.095 C78.992,61.856 61.288,79.56 39.526,79.56 L39.526,79.56 Z M39.526,3.629 C19.419,3.629 3.061,19.987 3.061,40.095 C3.061,60.202 19.419,76.56 39.526,76.56 C59.634,76.56 75.992,60.202 75.992,40.095 C75.992,19.987 59.634,3.629 39.526,3.629 L39.526,3.629 Z" id="Linkedin-Cirlce"></path>
                <path d="M22.677,34.356 L29.867,34.356 L29.867,57.138 L22.677,57.138 L22.677,34.356 Z M49.512,34.137 C54.622,34.137 58.637,37.414 58.637,44.471 L58.637,57.138 L50.484,57.138 L50.484,45.349 C50.484,42.263 49.209,40.156 46.404,40.156 C44.259,40.156 43.066,41.578 42.511,42.948 C42.303,43.44 42.335,44.125 42.335,44.81 L42.335,57.138 L34.258,57.138 C34.258,57.138 34.362,36.255 34.258,34.356 L42.335,34.356 L42.335,37.932 C42.812,36.368 45.393,34.137 49.512,34.137 Z M26.139,23.602 C28.792,23.602 30.423,25.303 30.475,27.551 C30.475,29.758 28.792,31.506 26.089,31.506 L26.037,31.506 C23.435,31.506 21.747,29.765 21.747,27.557 C21.747,25.307 23.484,23.602 26.139,23.602 Z" id="Linkedin"></path>
            </g>
        </g>
    </g>
</svg>